<?xml version="1.0" encoding="utf-8"?>
<svg xmlns="http://www.w3.org/2000/svg" viewBox="0 0 24 24" width="10" height="10">
  <path d="M9.5 1C7.026562 1 5 3.026562 5 5.5C5 6.9426457 5.7334437 8.1748313 6.7988281 9C5.7334437 9.8251687 5 11.057354 5 12.5C5 13.942646 5.7334437 15.174831 6.7988281 16C5.7334437 16.825169 5 18.057354 5 19.5C5 21.973438 7.026562 24 9.5 24C11.973438 24 14 21.973438 14 19.5L14 16L14 10L16.5 10C18.973438 10 21 7.973438 21 5.5C21 3.026562 18.973438 1 16.5 1L13 1L9.5 1 z M 9.5 3L12 3L12 8L9.5 8C8.107438 8 7 6.892562 7 5.5C7 4.107438 8.107438 3 9.5 3 z M 14 3L16.5 3C17.892562 3 19 4.107438 19 5.5C19 6.892562 17.892562 8 16.5 8L14 8L14 3 z M 9.5 10L12 10L12 15L9.5 15C8.107438 15 7 13.892562 7 12.5C7 11.107438 8.107438 10 9.5 10 z M 17 10 A 3 3 0 0 0 17 16 A 3 3 0 0 0 17 10 z M 9.5 17L12 17L12 19.5C12 20.892562 10.892562 22 9.5 22C8.107438 22 7 20.892562 7 19.5C7 18.107438 8.107438 17 9.5 17 z" fill="#292929" />
</svg>