<?xml version="1.0" encoding="utf-8"?>
<svg xmlns="http://www.w3.org/2000/svg" viewBox="0 0 24 24" width="96" height="96">
  <path d="M13.292969 2.0058594C12.778771 2.0059025 12.264942 2.1989119 11.878906 2.5859375L8.359375 6.1054688C7.8314199 6.6334238 7.0064708 6.6334238 6.4785156 6.1054688L5.0644531 7.5195312C6.356498 8.8115762 8.4813926 8.8115762 9.7734375 7.5195312L13.292969 4L13.302734 4.0117188L14.560547 5.1972656L3.6542969 16.103516L2.7753906 21.224609L4.1699219 20.986328L7.8964844 20.345703L21.121094 7.1210938C22.284167 5.9580206 22.284167 4.0419793 21.121094 2.8789062C20.539633 2.2967002 19.770049 2.0058594 19 2.0058594C18.229951 2.0058594 17.460367 2.2967001 16.878906 2.8789062L15.976562 3.78125L14.707031 2.5859375C14.320704 2.1996451 13.807166 2.0058162 13.292969 2.0058594 z M 19 3.9941406C19.253951 3.9941406 19.508492 4.0941749 19.707031 4.2929688C20.105958 4.6918957 20.105958 5.3081043 19.707031 5.7070312L18.890625 6.5234375L17.433594 5.1523438L18.292969 4.2929688C18.491508 4.0941748 18.746049 3.9941406 19 3.9941406 z M 16.017578 6.5683594L17.474609 7.9394531L9.4179688 15.996094L8.0039062 14.582031L16.017578 6.5683594 z M 6.5898438 15.996094L8.0039062 17.410156L6.9316406 18.482422L5.2246094 18.775391L5.5175781 17.068359L6.5898438 15.996094 z" fill="#FFFAFF" />
</svg>