<?xml version="1.0" encoding="utf-8"?>
<svg xmlns="http://www.w3.org/2000/svg" viewBox="0 0 24 24" width="10" height="10">
  <path d="M16.490234 1.8457031C15.932569 1.8852421 15.391048 2.1508005 15.03125 2.6308594L12.501953 6L11 6L7.2617188 6L2.4882812 21.511719L18 16.738281L18 13L18 11.46875L21.199219 8.8007812C22.159336 8.0811859 22.261749 6.6328427 21.414062 5.7851562L18.044922 2.4160156C17.621079 1.9921725 17.0479 1.8061646 16.490234 1.8457031 z M 16.630859 3.8320312L20 7.1992188L19.980469 7.2148438L17.060547 9.6464844L14.320312 6.90625L16.630859 3.8320312 z M 8.7382812 8L11 8L12.585938 8L16 11.414062L16 13L16 15.261719L7.5527344 17.861328L10.484375 14.929688 A 2 2 0 0 0 11 15 A 2 2 0 0 0 13 13 A 2 2 0 0 0 11 11 A 2 2 0 0 0 9 13 A 2 2 0 0 0 9.0683594 13.517578L6.1386719 16.447266L8.7382812 8 z" fill="#FFFAFF" />
</svg>