<?xml version="1.0" encoding="utf-8"?>
<svg xmlns="http://www.w3.org/2000/svg" viewBox="0 0 24 24" width="96" height="96">
  <path d="M20,3c-4.539,0-8.874,1.84-12.034,4.966C4.84,11.126,3,15.461,3,20c0,0.672,0.562,1,1,1h3.51 c0.545,0,0.989-0.432,1.002-0.977c0.015-0.63,0.052-1.423,0.14-1.924c0.096-0.542,0.282-1.194,0.425-1.653 c0.112-0.36,0.013-0.752-0.253-1.019L6.62,13.21c0.807-1.532,1.747-2.759,2.792-3.798c1.039-1.045,2.266-1.985,3.798-2.792 l2.218,2.204c0.194,0.193,0.454,0.298,0.72,0.298c0.1,0,0.201-0.015,0.299-0.045c0.458-0.142,1.111-0.329,1.653-0.425 c0.501-0.088,1.293-0.125,1.924-0.14C20.568,8.499,21,8.055,21,7.51V4C21,3.562,20.672,3,20,3z M6.997,16.426 c-0.142,0.501-0.247,0.946-0.314,1.326C6.625,18.08,6.582,18.492,6.552,19H5.034c0.088-1.29,0.346-2.563,0.758-3.785L6.997,16.426z M19,6.552c-0.508,0.03-0.921,0.073-1.248,0.131c-0.38,0.067-0.824,0.172-1.326,0.314l-1.211-1.204 C16.437,5.38,17.711,5.123,19,5.034V6.552z" fill="#292929" />
</svg>