<?xml version="1.0" encoding="utf-8"?>
<svg xmlns="http://www.w3.org/2000/svg" viewBox="0 0 24 24" width="96" height="96">
  <path d="M12 2C6.4886661 2 2 6.4886661 2 12C2 17.511334 6.4886661 22 12 22L17 22L17 20L12 20C7.5693339 20 4 16.430666 4 12C4 7.5693339 7.5693339 4 12 4C16.430666 4 20 7.5693339 20 12L20 13.5C20 14.340812 19.340812 15 18.5 15C17.659188 15 17 14.340812 17 13.5L17 12C17 9.2504209 14.749579 7 12 7C9.2504209 7 7 9.2504209 7 12C7 14.749579 9.2504209 17 12 17C13.413556 17 14.687859 16.398875 15.599609 15.447266C16.230695 16.380863 17.297708 17 18.5 17C20.421188 17 22 15.421188 22 13.5L22 12C22 6.4886661 17.511334 2 12 2 z M 12 9C13.668699 9 15 10.331301 15 12C15 13.668699 13.668699 15 12 15C10.331301 15 9 13.668699 9 12C9 10.331301 10.331301 9 12 9 z" fill="#FFFAFF" />
</svg>