<?xml version="1.0" encoding="utf-8"?>
<svg xmlns="http://www.w3.org/2000/svg" viewBox="0 0 24 24" width="96" height="96">
  <path d="M5 3C3.895 3 3 3.895 3 5L3 19C3 20.105 3.895 21 5 21L19 21C20.105 21 21 20.105 21 19L21 5C21 3.895 20.105 3 19 3L5 3 z M 5 5L19 5L19 19L5 19L5 5 z M 7.7792969 6.3164062C6.9222969 6.3164062 6.4082031 6.8315781 6.4082031 7.5175781C6.4082031 8.2035781 6.9223594 8.7167969 7.6933594 8.7167969C8.5503594 8.7167969 9.0644531 8.2035781 9.0644531 7.5175781C9.0644531 6.8315781 8.5502969 6.3164062 7.7792969 6.3164062 z M 6.4765625 10L6.4765625 17L9 17L9 10L6.4765625 10 z M 11.082031 10L11.082031 17L13.605469 17L13.605469 13.173828C13.605469 12.034828 14.418109 11.871094 14.662109 11.871094C14.906109 11.871094 15.558594 12.115828 15.558594 13.173828L15.558594 17L18 17L18 13.173828C18 10.976828 17.023734 10 15.802734 10C14.581734 10 13.930469 10.406562 13.605469 10.976562L13.605469 10L11.082031 10 z" fill="#FFFAFF" />
</svg>