<?xml version="1.0" encoding="utf-8"?>
<svg xmlns="http://www.w3.org/2000/svg" viewBox="0 0 24 24" width="96" height="96">
  <path d="M8 3C6.9069372 3 6 3.9069372 6 5L8 5L16 5L18 5C18 3.9069372 17.093063 3 16 3L8 3 z M 6 6C4.9069372 6 4 6.9069372 4 8L6 8L18 8L20 8C20 6.9069372 19.093063 6 18 6L6 6 z M 5 9C3.9069372 9 3 9.9069372 3 11L3 19C3 20.093063 3.9069372 21 5 21L19 21C20.093063 21 21 20.093063 21 19L21 11C21 9.9069372 20.093063 9 19 9L5 9 z M 5 11L19 11L19 19L5 19L5 11 z" fill="#FFFAFF" />
</svg>