<?xml version="1.0" encoding="utf-8"?>
<svg xmlns="http://www.w3.org/2000/svg" viewBox="0 0 24 24" width="96" height="96">
  <path d="M16 2L16 3.203125C15.257598 3.384199 14.599699 3.6951502 14.125 4.1855469L13.169922 3.6347656L12.169922 5.3652344L13.177734 5.9472656C13.090179 6.2951157 13 6.6445314 13 7C13 7.3554686 13.09018 7.7048843 13.177734 8.0527344L12.169922 8.6347656L13.169922 10.365234L14.125 9.8144531C14.599699 10.30485 15.257598 10.615801 16 10.796875L16 12L18 12L18 10.796875C18.742402 10.615801 19.400301 10.30485 19.875 9.8144531L20.830078 10.365234L21.830078 8.6347656L20.822266 8.0527344C20.909821 7.7048843 21 7.3554686 21 7C21 6.6445314 20.909821 6.2951157 20.822266 5.9472656L21.830078 5.3652344L20.830078 3.6347656L19.875 4.1855469C19.400301 3.6951502 18.742402 3.384199 18 3.203125L18 2L16 2 z M 17 5C17.749999 5 18.185226 5.2452444 18.501953 5.6015625C18.81868 5.9578806 19 6.4722221 19 7C19 7.5277779 18.81868 8.0421194 18.501953 8.3984375C18.185226 8.7547556 17.749999 9 17 9C16.250001 9 15.814774 8.7547556 15.498047 8.3984375C15.18132 8.0421194 15 7.5277779 15 7C15 6.4722221 15.18132 5.9578806 15.498047 5.6015625C15.814774 5.2452444 16.250001 5 17 5 z M 7 10L7 11.201172C5.8893376 11.413372 4.904113 11.852257 4.2519531 12.585938C4.2327931 12.607487 4.2276904 12.636373 4.2089844 12.658203L3.3046875 12.134766L2.3046875 13.865234L3.2675781 14.421875C3.1102522 14.936467 3 15.466202 3 16C3 16.533798 3.1102519 17.063538 3.2675781 17.578125L2.3046875 18.134766L3.3046875 19.865234L4.2089844 19.341797C4.2276904 19.363637 4.2327931 19.392502 4.2519531 19.414062C4.9041127 20.147739 5.8893376 20.586628 7 20.798828L7 22L9 22L9 20.798828C10.110662 20.586628 11.095887 20.147744 11.748047 19.414062C11.767207 19.392512 11.772306 19.363637 11.791016 19.341797L12.695312 19.865234L13.695312 18.134766L12.732422 17.578125C12.889747 17.063543 13 16.533798 13 16C13 15.466202 12.889748 14.936462 12.732422 14.421875L13.695312 13.865234L12.695312 12.134766L11.791016 12.658203C11.772306 12.636363 11.767207 12.607487 11.748047 12.585938C11.095888 11.852252 10.110662 11.413372 9 11.201172L9 10L7 10 z M 8 13C9.0833326 13 9.7685596 13.370244 10.251953 13.914062C10.735347 14.457882 11 15.222222 11 16C11 16.777778 10.735347 17.542119 10.251953 18.085938C9.7685596 18.629756 9.0833326 19 8 19C6.9166674 19 6.2314405 18.629756 5.7480469 18.085938C5.2646532 17.542119 5 16.777778 5 16C5 15.222222 5.2646532 14.457881 5.7480469 13.914062C6.2314405 13.370245 6.9166674 13 8 13 z M 8 15 A 1 1 0 0 0 8 17 A 1 1 0 0 0 8 15 z" fill="#FFFAFF" />
</svg>